<?xml version="1.0" standalone="no"?>
<!DOCTYPE svg PUBLIC "-//W3C//DTD SVG 20010904//EN"
 "http://www.w3.org/TR/2001/REC-SVG-20010904/DTD/svg10.dtd">
<svg version="1.0" xmlns="http://www.w3.org/2000/svg"
 width="976.000000pt" height="976.000000pt" viewBox="0 0 976.000000 976.000000"
 preserveAspectRatio="xMidYMid meet">
<metadata>
Created by potrace 1.11, written by Peter Selinger 2001-2013
</metadata>
<g transform="translate(0.000000,976.000000) scale(0.100000,-0.100000)"
fill="#000000" stroke="none">
<path d="M828 7344 c-2 -447 -6 -615 -15 -625 -6 -8 -11 -16 -11 -19 -1 -34
-69 -117 -124 -153 -70 -44 -110 -50 -391 -50 l-267 0 0 -486 0 -486 278 0
277 -1 60 -27 c82 -38 160 -124 183 -200 3 -12 8 -293 9 -624 2 -332 7 -603
11 -604 4 0 1728 0 3832 -1 l3825 -1 57 -20 c63 -23 145 -92 172 -143 87 -175
28 -364 -141 -450 l-58 -29 -3847 -3 -3848 -2 0 -810 0 -810 58 -1 c31 0 65
-2 74 -4 10 -2 20 1 24 6 3 5 9 7 14 4 7 -5 127 -6 250 -4 39 1 237 0 255 -1
11 -1 27 -1 35 -1 91 2 122 1 130 -4 5 -3 11 -1 15 5 4 6 11 8 16 5 12 -8 138
-10 145 -2 3 3 11 4 17 1 26 -9 78 -11 83 -3 3 5 9 7 14 4 7 -5 127 -6 250 -4
8 0 63 -1 122 -1 59 -1 110 0 115 3 4 2 17 1 28 -3 11 -4 34 -4 52 1 19 4 36
3 39 -3 4 -5 11 -5 18 1 7 6 15 8 18 6 4 -5 126 -6 248 -4 39 1 237 0 255 -1
11 -1 27 -1 35 -1 91 2 122 1 130 -4 5 -3 11 -1 15 5 4 6 11 8 16 5 12 -8 138
-10 145 -2 3 3 11 4 17 1 26 -9 78 -11 83 -3 3 5 9 7 14 4 7 -5 127 -6 250 -4
39 1 237 0 255 -1 11 -1 27 -1 35 -1 91 2 122 1 130 -4 5 -3 11 -1 15 5 4 6
11 8 16 5 12 -8 138 -10 145 -2 3 3 11 4 17 1 26 -9 78 -11 83 -3 3 5 9 7 14
4 7 -5 127 -6 250 -4 8 0 63 -1 122 -1 59 -1 110 0 115 3 4 2 17 1 28 -3 11
-4 34 -4 52 1 19 4 36 3 39 -3 4 -5 11 -5 18 1 7 6 15 8 18 6 4 -5 126 -6 248
-4 39 1 237 0 255 -1 11 -1 27 -1 35 -1 91 2 122 1 130 -4 5 -3 11 -1 15 5 4
6 11 8 16 5 12 -8 138 -10 145 -2 3 3 11 4 17 1 26 -9 78 -11 83 -3 3 5 9 7
14 4 7 -5 127 -6 250 -4 39 1 237 0 255 -1 11 -1 27 -1 35 -1 91 2 122 1 130
-4 5 -3 11 -1 15 5 4 6 11 8 16 5 12 -8 138 -10 145 -2 3 3 11 4 17 1 26 -9
78 -11 83 -3 3 5 9 7 14 4 7 -5 127 -6 250 -4 8 0 63 -1 122 -1 59 -1 110 0
115 3 4 2 17 1 28 -3 11 -4 34 -4 52 1 19 4 36 3 39 -3 4 -5 11 -5 18 1 7 6
15 8 18 6 4 -5 126 -6 248 -4 39 1 237 0 255 -1 11 -1 27 -1 35 -1 91 2 122 1
130 -4 5 -3 11 -1 15 5 4 6 11 8 16 5 12 -8 138 -10 145 -2 3 3 11 4 17 1 26
-9 78 -11 83 -3 3 5 9 7 14 4 7 -5 121 -8 212 -6 l37 1 1 583 c0 320 3 598 6
617 15 93 113 204 207 237 44 15 90 18 302 20 138 1 260 2 272 2 l22 1 0 485
-1 485 -267 0 c-263 0 -293 3 -366 35 -44 20 -120 98 -142 145 -32 71 -34 100
-33 686 l0 591 -3827 0 c-2958 0 -3838 3 -3872 12 -80 22 -165 90 -201 161
-39 78 -49 202 -21 258 5 9 15 30 22 46 32 67 130 143 209 162 19 4 1756 8
3860 8 l3825 1 2 808 c1 444 -1 808 -5 808 -4 1 -1826 2 -4049 3 l-4042 1 -3
-611z"/>
</g>
</svg>
