<?xml version="1.0" encoding="UTF-8"?>
<svg width="12px" height="10px" viewBox="0 0 12 10" version="1.1" xmlns="http://www.w3.org/2000/svg" xmlns:xlink="http://www.w3.org/1999/xlink">
    <!-- Generator: Sketch 50.2 (55047) - http://www.bohemiancoding.com/sketch -->
    <title>icon-js</title>
    <desc>Created with Sketch.</desc>
    <defs></defs>
    <g id="Symbols" stroke="none" stroke-width="1" fill="none" fill-rule="evenodd">
        <g id="Studio-Online" transform="translate(-20.000000, -499.000000)" fill="#F8E71C" fill-rule="nonzero">
            <g id="Group-13">
                <g id="Group-2-[12v]" transform="translate(19.000000, 465.000000)">
                    <g id="js" transform="translate(1.000000, 29.000000)">
                        <g id="icon-js" transform="translate(0.000000, 5.000000)">
                            <path d="M2.56525132,0.217391304 L4.52459016,0.217391304 L4.52459016,6.30114409 C4.52459016,9.04312335 3.33870761,10 1.44374785,10 C0.979715954,10 0.386763045,9.91431879 0,9.77151676 L0.219149439,8.01494879 C0.489857977,8.1149102 0.837905164,8.18631121 1.22459841,8.18631121 C2.04959053,8.18631121 2.56525132,7.7721338 2.56525132,6.28691544 L2.56525132,0.217391304 Z" id="Shape"></path>
                            <path d="M6.31081272,7.60050932 C6.8388022,7.90223827 7.68361872,8.20396721 8.54161055,8.20396721 C9.46562192,8.20396721 9.95401397,7.78732972 9.95401397,7.1407714 C9.95401397,6.55170625 9.53161763,6.192536 8.46241571,5.79021345 C6.98399276,5.21548918 6.00723247,4.32469509 6.00723247,2.90232903 C6.00723247,1.25001621 7.28762066,0 9.37320411,0 C10.3896333,0 11.1155861,0.21557995 11.6436232,0.488523408 L11.1947809,2.24137797 C10.8516032,2.05463537 10.2047738,1.78161411 9.34685347,1.78161411 C8.47563867,1.78161411 8.0532185,2.22701116 8.0532185,2.71553457 C8.0532185,3.33335927 8.54161055,3.60630272 9.70325411,4.09485207 C11.2739996,4.72704358 12,5.61783767 12,6.99712923 C12,8.6206825 10.8648024,10 8.42281828,10 C7.4063891,10 6.40315906,9.69824512 5.90163934,9.39654211 L6.31081272,7.60050932 Z" id="Shape"></path>
                        </g>
                    </g>
                </g>
            </g>
        </g>
    </g>
</svg>