<?xml version="1.0" encoding="iso-8859-1"?>
<svg version="1.1" id="Layer_1" xmlns="http://www.w3.org/2000/svg" xmlns:xlink="http://www.w3.org/1999/xlink" x="0px" y="0px"
	 viewBox="0 0 230 19" width="230px" height="19px" style="enable-background:new 0 0 230 19;" xml:space="preserve">
<g id="Symbols">
	<g id="logged-out-top-bar-option-1" transform="translate(-20.000000, -21.000000)">
		<g id="Group" transform="translate(20.000000, 21.000000)">
			<g style="enable-background:new;">
				<path style="fill:#CCCCCC;" d="M153.02,8.543c0,1.769-0.479,3.119-1.439,4.055c-0.959,0.935-2.34,1.402-4.142,1.402h-2.966
					V3.292h3.281c1.664,0,2.959,0.462,3.881,1.384C152.559,5.6,153.02,6.889,153.02,8.543z M151.701,8.588
					c0-1.396-0.351-2.449-1.051-3.157c-0.701-0.708-1.742-1.062-3.124-1.062h-1.81v8.555h1.517c1.484,0,2.601-0.365,3.347-1.096
					C151.328,11.099,151.701,10.019,151.701,8.588z"/>
				<path style="fill:#CCCCCC;" d="M160.16,14l-0.241-1.143h-0.059c-0.4,0.503-0.8,0.844-1.198,1.021
					c-0.397,0.179-0.895,0.268-1.49,0.268c-0.795,0-1.42-0.205-1.871-0.615s-0.678-0.993-0.678-1.75c0-1.621,1.297-2.471,3.89-2.549
					l1.362-0.045V8.689c0-0.629-0.135-1.095-0.406-1.395c-0.271-0.301-0.705-0.451-1.301-0.451c-0.668,0-1.426,0.205-2.27,0.615
					l-0.374-0.93c0.396-0.215,0.829-0.383,1.3-0.506c0.471-0.121,0.943-0.183,1.418-0.183c0.957,0,1.666,0.212,2.127,0.638
					c0.461,0.424,0.692,1.105,0.692,2.043V14H160.16z M157.414,13.143c0.757,0,1.352-0.207,1.783-0.622s0.648-0.996,0.648-1.743
					v-0.725l-1.216,0.051c-0.967,0.034-1.664,0.185-2.091,0.45c-0.428,0.267-0.641,0.681-0.641,1.241
					c0,0.439,0.133,0.774,0.398,1.004S156.936,13.143,157.414,13.143z"/>
				<path style="fill:#CCCCCC;" d="M168.744,11.811c0,0.746-0.277,1.323-0.834,1.729s-1.338,0.607-2.344,0.607
					c-1.064,0-1.895-0.168-2.49-0.506v-1.127c0.385,0.195,0.799,0.349,1.241,0.461c0.441,0.112,0.868,0.168,1.278,0.168
					c0.635,0,1.123-0.101,1.465-0.304c0.342-0.202,0.512-0.511,0.512-0.927c0-0.312-0.135-0.579-0.406-0.802
					c-0.271-0.222-0.799-0.484-1.586-0.787c-0.746-0.278-1.277-0.521-1.593-0.729c-0.314-0.208-0.549-0.443-0.703-0.707
					c-0.153-0.264-0.23-0.579-0.23-0.944c0-0.654,0.267-1.171,0.798-1.55c0.533-0.378,1.263-0.567,2.19-0.567
					c0.864,0,1.709,0.176,2.534,0.527l-0.432,0.988c-0.807-0.331-1.536-0.498-2.19-0.498c-0.576,0-1.011,0.091-1.304,0.271
					s-0.439,0.43-0.439,0.747c0,0.215,0.055,0.398,0.165,0.55c0.109,0.151,0.286,0.295,0.53,0.432s0.713,0.335,1.406,0.594
					c0.953,0.347,1.596,0.695,1.931,1.047C168.577,10.836,168.744,11.278,168.744,11.811z"/>
				<path style="fill:#CCCCCC;" d="M176.215,14V8.807c0-0.653-0.148-1.143-0.446-1.465s-0.765-0.482-1.399-0.482
					c-0.844,0-1.461,0.229-1.85,0.688c-0.387,0.46-0.582,1.212-0.582,2.256V14h-1.215V2.604h1.215v3.449
					c0,0.416-0.02,0.76-0.059,1.033h0.074c0.238-0.386,0.579-0.689,1.021-0.912c0.441-0.222,0.945-0.333,1.512-0.333
					c0.982,0,1.719,0.233,2.209,0.699c0.49,0.467,0.736,1.208,0.736,2.224V14H176.215z"/>
				<path style="fill:#CCCCCC;" d="M183.664,5.841c1.055,0,1.873,0.36,2.457,1.08c0.584,0.721,0.875,1.739,0.875,3.058
					s-0.294,2.343-0.882,3.073c-0.589,0.729-1.405,1.095-2.45,1.095c-0.522,0-1-0.097-1.432-0.289
					c-0.433-0.193-0.795-0.489-1.088-0.891h-0.088L180.801,14h-0.872V2.604h1.216v2.769c0,0.62-0.02,1.177-0.059,1.67h0.059
					C181.711,6.241,182.551,5.841,183.664,5.841z M183.488,6.859c-0.83,0-1.428,0.237-1.795,0.714
					c-0.365,0.476-0.549,1.278-0.549,2.405c0,1.129,0.188,1.936,0.564,2.421c0.375,0.486,0.979,0.729,1.809,0.729
					c0.747,0,1.304-0.272,1.67-0.817c0.366-0.544,0.549-1.326,0.549-2.347c0-1.045-0.183-1.824-0.549-2.337
					S184.255,6.859,183.488,6.859z"/>
				<path style="fill:#CCCCCC;" d="M196.049,9.979c0,1.31-0.329,2.331-0.988,3.065c-0.659,0.735-1.57,1.103-2.732,1.103
					c-0.717,0-1.354-0.168-1.911-0.506c-0.557-0.336-0.986-0.82-1.289-1.449c-0.303-0.631-0.454-1.367-0.454-2.213
					c0-1.308,0.327-2.327,0.981-3.058c0.654-0.729,1.563-1.095,2.725-1.095c1.123,0,2.015,0.373,2.677,1.121
					C195.719,7.693,196.049,8.705,196.049,9.979z M189.934,9.979c0,1.025,0.205,1.808,0.615,2.344
					c0.41,0.538,1.014,0.807,1.809,0.807c0.797,0,1.4-0.268,1.813-0.803c0.413-0.534,0.619-1.316,0.619-2.348
					c0-1.02-0.206-1.795-0.619-2.325c-0.412-0.529-1.021-0.794-1.826-0.794c-0.797,0-1.396,0.261-1.803,0.783
					C190.137,8.165,189.934,8.944,189.934,9.979z"/>
				<path style="fill:#CCCCCC;" d="M203.117,14l-0.242-1.143h-0.059c-0.4,0.503-0.799,0.844-1.197,1.021
					c-0.398,0.179-0.895,0.268-1.49,0.268c-0.796,0-1.42-0.205-1.871-0.615c-0.452-0.41-0.678-0.993-0.678-1.75
					c0-1.621,1.297-2.471,3.889-2.549l1.363-0.045V8.689c0-0.629-0.136-1.095-0.407-1.395c-0.271-0.301-0.704-0.451-1.3-0.451
					c-0.669,0-1.426,0.205-2.271,0.615l-0.374-0.93c0.396-0.215,0.829-0.383,1.301-0.506c0.471-0.121,0.943-0.183,1.417-0.183
					c0.957,0,1.666,0.212,2.128,0.638c0.461,0.424,0.691,1.105,0.691,2.043V14H203.117z M200.371,13.143
					c0.756,0,1.351-0.207,1.783-0.622c0.432-0.415,0.648-0.996,0.648-1.743v-0.725l-1.217,0.051
					c-0.967,0.034-1.664,0.185-2.091,0.45c-0.427,0.267-0.641,0.681-0.641,1.241c0,0.439,0.133,0.774,0.399,1.004
					C199.52,13.028,199.893,13.143,200.371,13.143z"/>
				<path style="fill:#CCCCCC;" d="M210.186,5.826c0.355,0,0.676,0.029,0.959,0.088l-0.168,1.128
					c-0.332-0.073-0.625-0.11-0.879-0.11c-0.65,0-1.205,0.264-1.666,0.791c-0.463,0.527-0.693,1.185-0.693,1.971V14h-1.215V5.973
					h1.003l0.14,1.486h0.059c0.297-0.521,0.656-0.925,1.076-1.208S209.682,5.826,210.186,5.826z"/>
				<path style="fill:#CCCCCC;" d="M218.109,12.924h-0.065c-0.562,0.815-1.401,1.223-2.52,1.223c-1.05,0-1.866-0.359-2.45-1.076
					c-0.584-0.719-0.875-1.738-0.875-3.063c0-1.322,0.293-2.351,0.879-3.083s1.401-1.099,2.446-1.099
					c1.089,0,1.924,0.396,2.505,1.187h0.096l-0.052-0.579l-0.029-0.563V2.604h1.216V14h-0.988L218.109,12.924z M215.678,13.129
					c0.83,0,1.432-0.227,1.807-0.678c0.373-0.452,0.56-1.181,0.56-2.187v-0.257c0-1.137-0.189-1.949-0.567-2.435
					c-0.379-0.486-0.982-0.729-1.813-0.729c-0.713,0-1.26,0.277-1.637,0.832c-0.379,0.554-0.568,1.336-0.568,2.348
					c0,1.025,0.188,1.799,0.564,2.321C214.398,12.867,214.951,13.129,215.678,13.129z"/>
			</g>
			<path id="Line" style="fill:none;stroke:#585858;stroke-linecap:square;" d="M131.5,0.5v17.067"/>
			<path id="superblocks-logo-white" style="fill:#FFFFFF;" d="M23.52,5.454V15.4h-2.557v-1.665c-0.254,0.583-0.688,1.07-1.238,1.39
				c-0.568,0.339-1.224,0.509-1.968,0.509c-1.164,0-2.067-0.328-2.709-0.988c-0.643-0.659-0.964-1.589-0.964-2.789V5.454h2.618
				v5.854c0,0.796,0.166,1.393,0.497,1.791c0.331,0.398,0.829,0.597,1.491,0.597c0.703,0,1.248-0.246,1.634-0.735
				c0.386-0.489,0.579-1.191,0.579-2.105V5.455L23.52,5.454L23.52,5.454z M33.332,6.308c-1.04,0-1.886,0.816-1.886,1.819
				c0,1.003,0.846,1.82,1.886,1.82c1.039,0,1.885-0.816,1.885-1.82C35.218,7.124,34.372,6.308,33.332,6.308z M26.745,14.482h3.772
				V6.307h-3.772V14.482z M25.816,15.378L25.816,15.378V5.412h10.331v9.966H25.816z M35.218,14.482v-4.339
				c-0.522,0.455-1.193,0.704-1.885,0.701c-0.693,0.003-1.364-0.246-1.886-0.702v4.34H35.218z M92.888,15.694
				c-1.56,0-2.817-0.474-3.766-1.424c-0.951-0.95-1.425-2.217-1.425-3.801c0-1.571,0.479-2.835,1.436-3.791
				c0.957-0.956,2.209-1.434,3.757-1.434c1.263,0,2.291,0.324,3.085,0.973c0.794,0.647,1.266,1.542,1.416,2.681h-2.464
				c-0.109-0.576-0.34-1.015-0.692-1.316c-0.353-0.301-0.808-0.452-1.365-0.452c-0.802,0-1.429,0.298-1.883,0.894
				c-0.455,0.595-0.683,1.411-0.683,2.446c0,1.048,0.228,1.866,0.683,2.455c0.454,0.589,1.081,0.884,1.883,0.884
				c0.556,0,1.011-0.154,1.365-0.462c0.353-0.307,0.583-0.743,0.692-1.306h2.464c-0.149,1.139-0.621,2.033-1.415,2.681
				C95.179,15.369,94.151,15.694,92.888,15.694L92.888,15.694L92.888,15.694z M43.089,7.109c-0.692,0-1.259,0.2-1.7,0.599
				c-0.441,0.4-0.73,0.979-0.866,1.739h4.867c0-0.694-0.207-1.257-0.621-1.69C44.355,7.326,43.795,7.109,43.089,7.109z
				 M45.41,12.355h2.403c-0.217,1.035-0.743,1.85-1.578,2.446c-0.835,0.596-1.864,0.893-3.086,0.893
				c-1.56,0-2.823-0.474-3.787-1.424c-0.964-0.95-1.445-2.211-1.445-3.782c0-1.572,0.481-2.839,1.445-3.801
				c0.964-0.963,2.206-1.444,3.727-1.444c1.467,0,2.63,0.465,3.492,1.394c0.862,0.93,1.293,2.142,1.293,3.634v0.806h-7.432
				c0.081,0.891,0.353,1.575,0.814,2.052c0.462,0.479,1.093,0.717,1.894,0.717c0.569,0,1.045-0.124,1.425-0.374
				C44.955,13.225,45.233,12.853,45.41,12.355L45.41,12.355z M104.658,14.562v-3.006l3.115,3.005L104.658,14.562L104.658,14.562z
				 M104.658,10.288V6.387h3.772v7.54L104.658,10.288z M99.956,14.562V6.387h3.772v8.175H99.956z M99.026,15.458h10.332V5.491
				H99.027L99.026,15.458L99.026,15.458L99.026,15.458z M80.73,7.11c-0.829,0-1.473,0.294-1.935,0.884
				c-0.461,0.589-0.692,1.414-0.692,2.475c0,1.06,0.231,1.886,0.692,2.474c0.461,0.59,1.106,0.884,1.934,0.884
				c0.828,0,1.473-0.294,1.935-0.884c0.461-0.589,0.692-1.414,0.692-2.474c0-1.049-0.231-1.87-0.692-2.466
				C82.203,7.407,81.557,7.11,80.73,7.11z M80.73,5.244c1.561,0,2.824,0.478,3.787,1.434c0.964,0.956,1.446,2.22,1.446,3.792
				c0,1.584-0.479,2.852-1.436,3.8c-0.957,0.95-2.223,1.424-3.797,1.424c-1.575,0-2.841-0.474-3.797-1.424
				c-0.958-0.95-1.436-2.217-1.436-3.801c0-1.571,0.482-2.835,1.446-3.791C77.906,5.721,79.168,5.243,80.73,5.244L80.73,5.244z
				 M115.642,15.694c-1.425,0-2.562-0.284-3.411-0.855c-0.848-0.569-1.327-1.371-1.435-2.406h2.484
				c0.054,0.471,0.295,0.841,0.723,1.109c0.428,0.269,0.96,0.403,1.599,0.403c0.583,0,1.055-0.111,1.415-0.334
				c0.359-0.222,0.539-0.523,0.539-0.903c0-0.314-0.119-0.553-0.356-0.717c-0.239-0.164-0.649-0.298-1.233-0.403l-1.832-0.314
				c-1.005-0.171-1.752-0.492-2.24-0.963c-0.489-0.472-0.733-1.1-0.733-1.886c0-0.93,0.394-1.692,1.181-2.289
				c0.786-0.596,1.792-0.893,3.013-0.893c1.317,0,2.359,0.265,3.126,0.795c0.766,0.53,1.204,1.287,1.313,2.269h-2.382
				c-0.054-0.393-0.265-0.707-0.631-0.943c-0.367-0.235-0.836-0.354-1.406-0.354c-0.543,0-0.981,0.106-1.313,0.315
				c-0.333,0.21-0.499,0.491-0.499,0.845c0,0.314,0.115,0.554,0.346,0.717c0.231,0.164,0.645,0.298,1.242,0.403l2.016,0.334
				c0.937,0.157,1.643,0.481,2.118,0.973c0.474,0.491,0.712,1.136,0.712,1.935c0,0.93-0.411,1.69-1.232,2.279
				S116.905,15.694,115.642,15.694z M70.838,15.458h2.606V1h-2.606V15.458z M63.461,7.089c-0.815,0-1.454,0.285-1.915,0.855
				c-0.462,0.57-0.692,1.353-0.692,2.348v0.354c0,0.995,0.231,1.777,0.692,2.347c0.461,0.57,1.099,0.855,1.915,0.855
				c0.827,0,1.479-0.301,1.955-0.904c0.474-0.602,0.711-1.427,0.711-2.474c0-1.049-0.237-1.873-0.712-2.475
				S64.288,7.09,63.461,7.089L63.461,7.089z M64.193,15.694c-0.733,0-1.403-0.167-2.006-0.501c-0.605-0.334-1.042-0.776-1.314-1.326
				v1.591h-2.566V1h2.607v6.109c0.271-0.563,0.702-1.015,1.293-1.356c0.591-0.34,1.252-0.51,1.985-0.51
				c1.357,0,2.457,0.485,3.298,1.453c0.841,0.97,1.263,2.227,1.263,3.773c0,1.545-0.422,2.802-1.263,3.772
				C66.649,15.209,65.55,15.694,64.193,15.694z M55.777,5.302c0.149,0,0.292,0.007,0.427,0.02c0.136,0.013,0.252,0.033,0.347,0.059
				v2.318c-0.152-0.028-0.305-0.047-0.458-0.059c-0.179-0.014-0.359-0.02-0.539-0.02c-0.883,0-1.588,0.288-2.118,0.865
				c-0.529,0.576-0.794,1.363-0.794,2.358v4.616h-2.606v-9.98h2.566v2.24c0.244-0.759,0.644-1.352,1.201-1.778
				C54.359,5.515,55.016,5.302,55.777,5.302z M6.394,15.694c-1.887,0-3.394-0.39-4.52-1.169C0.746,13.746,0.121,12.643,0,11.215
				h2.606c0.082,0.825,0.445,1.457,1.089,1.896c0.645,0.439,1.517,0.658,2.617,0.658c0.923,0,1.666-0.194,2.229-0.58
				c0.563-0.386,0.845-0.914,0.845-1.582c0-0.524-0.186-0.933-0.56-1.228c-0.374-0.294-0.981-0.521-1.823-0.678L4.338,9.23
				C3.034,9.008,2.064,8.579,1.425,7.944C0.787,7.31,0.468,6.468,0.468,5.42c0-1.244,0.51-2.259,1.528-3.044
				c1.018-0.786,2.328-1.179,3.931-1.179c1.737,0,3.108,0.354,4.113,1.061c1.005,0.708,1.575,1.716,1.71,3.026H9.204
				C9.11,4.615,8.773,4.091,8.197,3.711c-0.578-0.38-1.328-0.569-2.251-0.569c-0.855,0-1.544,0.196-2.067,0.589
				C3.357,4.124,3.095,4.634,3.095,5.263c0,0.511,0.163,0.901,0.489,1.169C3.909,6.7,4.521,6.92,5.417,7.09l2.81,0.53
				c1.29,0.236,2.246,0.668,2.871,1.296c0.624,0.629,0.937,1.473,0.937,2.534c0,1.244-0.53,2.263-1.589,3.055
				C9.388,15.298,8.037,15.694,6.394,15.694z"/>
		</g>
	</g>
</g>
</svg>
