<?xml version="1.0" encoding="UTF-8"?>
<svg width="202px" height="24px" viewBox="0 0 202 24" version="1.1" xmlns="http://www.w3.org/2000/svg" xmlns:xlink="http://www.w3.org/1999/xlink">
    <!-- Generator: Sketch 51.2 (57519) - http://www.bohemiancoding.com/sketch -->
    <title>OZ_logo_white</title>
    <desc>Created with Sketch.</desc>
    <defs></defs>
    <g id="Page-1" stroke="none" stroke-width="1" fill="none" fill-rule="evenodd">
        <g id="OZ_logo_white" fill-rule="nonzero">
            <g id="_Group_" fill="#43A4FF">
                <g id="_Group_2">
                    <path d="M30.8192732,19.7066895 C34.310852,13.1521191 32.9644826,5.06555287 27.5382164,0 L25.7223052,3.1085558 L16.0281328,19.7066895 L30.8192732,19.7066895 Z" id="_Path_"></path>
                    <path d="M2.00215855,4.13748777 C-1.47175327,10.515426 -0.339843624,18.4222794 4.78345167,23.5659615 L16.1134962,4.13748777 L2.00215855,4.13748777 Z" id="_Path_2"></path>
                </g>
            </g>
            <path d="M50.1821547,19.5878788 C48.5016065,19.5878788 47.0710399,19.1748627 45.8904547,18.3488304 C44.7325514,17.551051 43.842457,16.438246 43.3318201,15.15 C42.7860103,13.7317777 42.5187904,12.2263775 42.5440631,10.7121212 C42.5187904,9.19786496 42.7860103,7.69246468 43.3318201,6.27424242 C43.8425394,4.98604177 44.7326169,3.8732581 45.8904547,3.07541203 C47.0699895,2.24937977 48.5005562,1.83636364 50.1821547,1.83636364 C52.6882722,1.83636364 54.5920183,2.67415255 55.8933928,4.34973037 C57.1947673,6.0253082 57.8454545,8.14559398 57.8454545,10.7105877 C57.8454545,13.2755815 57.1947673,15.3958673 55.8933928,17.0714451 C54.5920183,18.7470229 52.6882722,19.5858342 50.1821547,19.5878788 Z M50.1821547,18.1724807 C51.5234423,18.1724807 52.663064,17.7988238 53.60102,17.0515099 C54.5162051,16.3351871 55.2053363,15.3822208 55.5893186,14.3019879 C55.9887811,13.1461442 56.1853198,11.9330563 56.1706832,10.7136547 C56.1852898,9.4942552 55.9887519,8.28117216 55.5893186,7.12532146 C55.2049984,6.0456842 54.5159014,5.09329679 53.60102,4.37733294 C52.663064,3.63001909 51.5234423,3.25636217 50.1821547,3.25636217 C49.2395146,3.238476 48.3081507,3.45823674 47.4785728,3.89428808 C46.7140104,4.30094735 46.0674572,4.88910444 45.5989847,5.60411353 C45.1224,6.33657677 44.7662453,7.13697996 44.5433903,7.97640049 C44.074504,9.77322191 44.074504,11.6556209 44.5433903,13.4524424 C44.766074,14.2919202 45.1222399,15.0923486 45.5989847,15.8247293 C46.0670928,16.5404286 46.7137012,17.1291634 47.4785728,17.5360882 C48.3082985,17.9716067 49.2396541,18.1908372 50.1821547,18.1724807 Z" id="Shape" fill="#43A4FF"></path>
            <path d="M62.130303,23.8727273 L62.130303,7.39433221 L63.5165319,7.39433221 L63.5165319,9.19988777 L63.5637032,9.19988777 C64.3438057,7.75955855 65.5692462,7.03939394 67.2400248,7.03939394 C68.8012441,7.03939394 70.0231341,7.65667789 70.9056947,8.89124579 C71.7882553,10.1258137 72.2295356,11.5826038 72.2295356,13.2616162 C72.251888,14.8507574 71.7854388,16.407474 70.8950431,17.7153199 C70.0053814,19.0219042 68.7880564,19.6751964 67.2430681,19.6751964 C66.5085946,19.6999935 65.7820307,19.5149776 65.1462257,19.1412458 C64.5761119,18.7852787 64.0491116,18.2271511 63.5652249,17.4668631 L63.5165319,17.4668631 L63.5165319,23.8727273 L62.130303,23.8727273 Z M67.2354598,18.3619248 C68.3909041,18.3619248 69.269407,17.8392911 69.8709684,16.7940236 C70.4761421,15.7340507 70.7878933,14.5280307 70.7733106,13.3032828 C70.7889832,12.0969233 70.4767901,10.9094831 69.8709684,9.87118406 C69.269407,8.84957912 68.3909041,8.33877666 67.2354598,8.33877666 C66.0181348,8.33877666 65.077244,8.84134867 64.4127874,9.8464927 C63.7394845,10.8853 63.3925062,12.1067026 63.4176242,13.3495791 C63.3925062,14.5924557 63.7394845,15.8138583 64.4127874,16.8526655 C65.077244,17.8629536 66.018642,18.3680976 67.2369814,18.3680976 L67.2354598,18.3619248 Z" id="Shape" fill="#43A4FF"></path>
            <path d="M81.3782225,19.5878788 C80.2093963,19.5878788 79.2193377,19.2731576 78.4080467,18.6437153 C77.6305201,18.0599776 77.037369,17.261392 76.7003855,16.3446158 C76.3641621,15.3867179 76.1980426,14.3764995 76.2096608,13.3603847 C76.2096608,11.5517598 76.6461981,10.0461051 77.5192728,8.84342065 C78.3923475,7.64073618 79.6705613,7.03939394 81.3539142,7.03939394 C84.8614057,7.03939394 86.6151515,9.20208016 86.6151515,13.5274526 L86.6151515,13.6424076 L77.7061432,13.6424076 C77.7375415,15.0269764 78.0530436,16.1474042 78.6526494,17.003691 C79.2522552,17.8599778 80.2144605,18.2886321 81.5392653,18.289654 C82.3477018,18.3058777 83.1382351,18.0484856 83.7847486,17.5585403 C84.4007291,17.114332 84.822619,16.447057 84.9621841,15.6962698 L86.4115691,15.6962698 C86.1624086,16.9541326 85.6088873,17.9171998 84.7510053,18.5854714 C83.8931233,19.253743 82.7688624,19.5878788 81.3782225,19.5878788 Z M77.7532309,12.4407449 L85.1141112,12.4407449 C85.1141112,11.1665329 84.7986092,10.1641256 84.1676051,9.43352284 C83.536601,8.70292013 82.6052875,8.33710786 81.3736647,8.33608603 C80.2200312,8.33608603 79.3277124,8.73306387 78.6967083,9.52701955 C78.0657042,10.3209752 77.7512149,11.292217 77.7532309,12.4407449 Z" id="Shape" fill="#43A4FF"></path>
            <path d="M91.8181818,19.2818182 L91.8181818,7.3932657 L93.2144456,7.3932657 L93.2144456,9.14570018 L93.2621154,9.19339594 C93.9879265,7.75739461 95.2027375,7.03939394 96.9065483,7.03939394 C98.2474536,7.03939394 99.2649219,7.48917007 99.9589531,8.38872234 C100.652984,9.2882746 101,10.4406657 101,11.8458956 L101,19.2818182 L99.6037362,19.2818182 L99.6037362,11.6089553 C99.6037362,10.630423 99.3315571,9.84113512 98.7871987,9.2410917 C98.2428404,8.64104829 97.4975513,8.34102658 96.5513314,8.34102658 C95.4943946,8.34102658 94.6742691,8.74361981 94.0909548,9.54880627 C93.4973451,10.3924287 93.1920614,11.4053783 93.2205965,12.4367075 L93.2205965,19.2802796 L91.8181818,19.2818182 Z" id="Shape" fill="#43A4FF"></path>
            <polygon id="Shape" fill="#000000" points="105.284848 18.9757576 105.284848 17.5761355 114.773745 3.54053156 105.284848 3.54053156 105.284848 2.14242424 116.609091 2.14242424 116.609091 3.54053156 107.096665 17.5761355 116.609091 17.5761355 116.609091 18.9757576"></polygon>
            <path d="M124.838832,19.5878788 C123.670006,19.5878788 122.679948,19.2731576 121.868658,18.6437153 C121.091131,18.0599776 120.497981,17.261392 120.160997,16.3446158 C119.824712,15.386734 119.658591,14.3765044 119.670273,13.3603847 C119.670273,11.5517598 120.10681,10.0461051 120.979884,8.84342065 C121.852958,7.64073618 123.131171,7.03939394 124.814523,7.03939394 C128.322013,7.03939394 130.075758,9.20208016 130.075758,13.5274526 L130.075758,13.6424076 L121.168274,13.6424076 C121.199672,15.0269764 121.515174,16.1474042 122.114779,17.003691 C122.714385,17.8599778 123.67659,18.2886321 125.001394,18.289654 C125.809847,18.3059962 126.600417,18.048592 127.246876,17.5585403 C127.860327,17.112578 128.279415,16.4448817 128.416714,15.694737 L129.866098,15.694737 C129.616938,16.9525999 129.063417,17.9156671 128.205535,18.5839387 C127.347654,19.2522103 126.225419,19.586857 124.838832,19.5878788 Z M121.215371,12.4407449 L128.580795,12.4407449 C128.580795,11.1665329 128.265293,10.1641256 127.63429,9.43352284 C127.003286,8.70292013 126.071973,8.33710786 124.840351,8.33608603 C123.686718,8.33608603 122.7944,8.73306387 122.163396,9.52701955 C121.532392,10.3209752 121.216384,11.292217 121.215371,12.4407449 Z" id="Shape" fill="#000000"></path>
            <path d="M134.972727,23.8727273 L134.972727,7.39433221 L136.354392,7.39433221 L136.354392,9.19988777 L136.39852,9.19988777 C137.178623,7.75955855 138.404572,7.03939394 140.076366,7.03939394 C141.637586,7.03939394 142.859477,7.65667789 143.742038,8.89124579 C144.624599,10.1258137 145.067909,11.5826038 145.071967,13.2616162 C145.094218,14.8507429 144.627777,16.4074289 143.737473,17.7153199 C142.847811,19.0219042 141.630485,19.6751964 140.085496,19.6751964 C139.351031,19.6999103 138.624488,19.5149 137.988652,19.1412458 C137.418538,18.7852787 136.891537,18.2271511 136.40765,17.4668631 L136.360479,17.4668631 L136.360479,23.8727273 L134.972727,23.8727273 Z M140.077887,18.3619248 C141.233333,18.3619248 142.111836,17.8392911 142.713398,16.7940236 C143.318502,15.7340213 143.630248,14.5280214 143.615741,13.3032828 C143.630495,12.0985004 143.318337,10.9127964 142.713398,9.87581369 C142.111836,8.85420875 141.233333,8.34340629 140.077887,8.34340629 C138.860562,8.34340629 137.91967,8.8459783 137.255213,9.85112233 C136.58191,10.8899296 136.234931,12.1113322 136.260049,13.3542088 C136.234835,14.597098 136.581822,15.8185288 137.255213,16.8572952 C137.918656,17.8644968 138.859547,18.3680976 140.077887,18.3680976 L140.077887,18.3619248 Z" id="Shape" fill="#000000"></path>
            <path d="M149.357576,23.8727273 L149.357576,7.39433221 L150.739657,7.39433221 L150.739657,9.19988777 L150.786843,9.19988777 C151.567181,7.75955855 152.793499,7.03939394 154.465797,7.03939394 C156.027488,7.03939394 157.249747,7.65667789 158.132574,8.89124579 C159.015401,10.1258137 159.456815,11.5826038 159.456815,13.2616162 C159.479073,14.8507429 159.012492,16.4074289 158.121919,17.7153199 C157.231989,19.0219042 156.014296,19.6751964 154.468841,19.6751964 C153.734154,19.6999103 153.007393,19.5149 152.371365,19.1412458 C151.801079,18.7852787 151.27392,18.2271511 150.789887,17.4668631 L150.742701,17.4668631 L150.742701,23.8727273 L149.357576,23.8727273 Z M154.464275,18.3619248 C155.620068,18.3619248 156.498836,17.8392911 157.100579,16.7940236 C157.705866,15.7340213 158.017706,14.5280214 158.003194,13.3032828 C158.018793,12.0969332 157.706511,10.9095142 157.100579,9.87118406 C156.498836,8.84957912 155.620068,8.33877666 154.464275,8.33877666 C153.246582,8.33877666 152.305407,8.84134867 151.64075,9.8464927 C150.967243,10.8853 150.62016,12.1067026 150.645286,13.3495791 C150.620064,14.5924684 150.967155,15.8138992 151.64075,16.8526655 C152.305407,17.8629536 153.246582,18.3680976 154.464275,18.3680976 L154.464275,18.3619248 Z" id="Shape" fill="#000000"></path>
            <path d="M168.911559,19.5878788 C167.742733,19.5878788 166.752675,19.2731576 165.941385,18.6437153 C165.163859,18.0599776 164.570708,17.261392 164.233725,16.3446158 C163.89744,15.386734 163.731318,14.3765044 163.743,13.3603847 C163.743,11.5517598 164.179537,10.0461051 165.052611,8.84342065 C165.925686,7.64073618 167.203899,7.03939394 168.887251,7.03939394 C172.39474,7.03939394 174.148485,9.20208016 174.148485,13.5274526 L174.148485,13.6424076 L165.239482,13.6424076 C165.27088,15.0269764 165.586382,16.1474042 166.185987,17.003691 C166.785593,17.8599778 167.747798,18.2886321 169.072602,18.289654 C169.881055,18.3059962 170.671625,18.048592 171.318084,17.5585403 C171.931535,17.112578 172.350623,16.4448817 172.487922,15.694737 L173.944903,15.694737 C173.695742,16.9525999 173.142221,17.9156671 172.28434,18.5839387 C171.426458,19.2522103 170.302198,19.586857 168.911559,19.5878788 Z M165.28506,12.4407449 L172.650484,12.4407449 C172.650484,11.1665329 172.334982,10.1641256 171.703978,9.43352284 C171.072975,8.70292013 170.141662,8.33710786 168.91004,8.33608603 C167.756407,8.33608603 166.864088,8.73306387 166.233085,9.52701955 C165.602081,10.3209752 165.286073,11.292217 165.28506,12.4407449 Z" id="Shape" fill="#000000"></path>
            <polygon id="Shape" fill="#000000" points="179.045455 18.9757576 179.045455 2.14242424 180.269697 2.14242424 180.269697 18.9757576"></polygon>
            <path d="M185.472727,4.14372726 L185.472727,2.14242424 L187.309091,2.14242424 L187.309091,4.14372726 L185.472727,4.14372726 Z M185.826227,18.9681941 L185.826227,7.28711931 L187.192788,7.28711931 L187.192788,18.9757576 L185.826227,18.9681941 Z" id="Shape" fill="#000000"></path>
            <path d="M192.818182,19.2818182 L192.818182,7.3932657 L194.214211,7.3932657 L194.214211,9.14570018 L194.261873,9.19339594 C194.987563,7.75739461 196.20217,7.03939394 197.905695,7.03939394 C199.246375,7.03939394 200.264186,7.48917007 200.959125,8.38872234 C201.654065,9.2882746 202.001023,10.4406657 201.999998,11.8458956 L202,19.2818182 L200.603968,19.2818182 L200.603968,11.6089553 C200.603968,10.630423 200.331835,9.84113512 199.787568,9.2410917 C199.2433,8.64104829 198.498136,8.34102658 197.552075,8.34102658 C196.495316,8.34102658 195.675328,8.74361981 195.092111,9.54880627 C194.496102,10.3921001 194.188678,11.4057039 194.215749,12.4382461 L194.215749,19.2818182 L192.818182,19.2818182 Z" id="Shape" fill="#000000"></path>
        </g>
    </g>
</svg>