<?xml version="1.0" encoding="UTF-8"?>
<svg width="12px" height="7px" viewBox="0 0 12 7" version="1.1" xmlns="http://www.w3.org/2000/svg" xmlns:xlink="http://www.w3.org/1999/xlink">
    <!-- Generator: Sketch 50.2 (55047) - http://www.bohemiancoding.com/sketch -->
    <title>OCR-A_char_Greater-Than_Sign</title>
    <desc>Created with Sketch.</desc>
    <defs></defs>
    <g id="Symbols" stroke="none" stroke-width="1" fill="none" fill-rule="evenodd">
        <g id="logged-out-top-bar-option-1" transform="translate(-1013.000000, -27.000000)" fill="#FFFFFF" fill-rule="nonzero">
            <g id="OCR-A_char_Greater-Than_Sign" transform="translate(1013.000000, 27.000000)">
                <path d="M2.75420762,-2.16782007 C2.78392037,-2.1809271 2.82849283,-2.18748701 2.88792501,-2.1875 L3.1553598,-2.12846021 L3.18507478,-2.10878028 L8.84577777,2.29952422 C8.95472432,2.39137243 9.03891665,2.5028919 9.09835507,2.63408304 C9.13796647,2.72593086 9.16768145,2.83089042 9.1875,2.94896194 L9.1875,4.07071799 C9.16768145,4.18880427 9.13796647,4.29376383 9.09835507,4.38559689 C9.03891665,4.51680279 8.95472432,4.62176235 8.84577777,4.70047578 L3.18507478,9.10878028 C3.09592732,9.16126173 2.98697261,9.18750157 2.85821004,9.1875 C2.6799181,9.17438175 2.52639092,9.08254221 2.3976279,8.91198097 C2.33819617,8.83326321 2.29362385,8.75454369 2.26391051,8.6758218 C2.20447892,8.54462456 2.17971654,8.39374522 2.18962307,8.22318339 C2.18962143,8.11822638 2.19952647,8.03294695 2.21933804,7.96734429 C2.26886132,7.75742811 2.3629587,7.59342875 2.50163032,7.47534602 C2.5511533,7.4359895 3.41288672,6.76687264 5.08683326,5.46799308 C6.74096081,4.16912434 7.57297925,3.5131273 7.58289128,3.5 C7.58288429,3.50000728 6.75086585,2.85057035 5.08683326,1.55168685 C3.41288672,0.252822046 2.5511533,-0.422854922 2.50163032,-0.475346021 C2.3629587,-0.593414191 2.26886132,-0.750853441 2.21933804,-0.94766436 C2.19952647,-1.02637228 2.18962143,-1.11165191 2.18962307,-1.20350346 L2.21933804,-1.55774221 C2.22924145,-1.59708968 2.24409894,-1.63644954 2.26391051,-1.6758218 C2.29362385,-1.75452893 2.33819617,-1.83324865 2.3976279,-1.91198097 C2.45705607,-1.9906879 2.51153343,-2.04316758 2.56106027,-2.06942042 C2.63039319,-2.12188731 2.69477559,-2.15468706 2.75420762,-2.16782007" id="text7977" transform="translate(5.687500, 3.500000) rotate(90.000000) translate(-5.687500, -3.500000) "></path>
            </g>
        </g>
    </g>
</svg>
