<?xml version="1.0" encoding="UTF-8"?>
<svg width="10px" height="9px" viewBox="0 0 10 9" version="1.1" xmlns="http://www.w3.org/2000/svg" xmlns:xlink="http://www.w3.org/1999/xlink">
    <!-- Generator: Sketch 50.2 (55047) - http://www.bohemiancoding.com/sketch -->
    <title>icon-ask-question</title>
    <desc>Created with Sketch.</desc>
    <defs></defs>
    <g id="Symbols" stroke="none" stroke-width="1" fill="none" fill-rule="evenodd">
        <g id="Studio-Online" transform="translate(-16.000000, -743.000000)" fill="#F5A623" fill-rule="nonzero">
            <g id="Group-13">
                <path d="M25.0713321,743 L16.9296865,743 C16.4163689,743 16,743.407812 16,743.911049 L16,748.996652 C16,749.499888 16.4163689,749.907701 16.9296865,749.907701 L18.4808649,749.907701 L18.4808649,752 L20.8535556,749.907701 L25.0703116,749.907701 C25.5836292,749.907701 25.9999981,749.499888 25.9999981,748.996652 L25.9999981,743.911049 C26.0010186,743.407812 25.5846497,743 25.0713321,743 Z M18.5043367,746.672321 C18.2747215,746.672321 18.0889883,746.490513 18.0889883,746.265513 C18.0889883,746.040513 18.275742,745.858705 18.5043367,745.858705 C18.7339519,745.858705 18.9207056,746.040513 18.9207056,746.265513 C18.9207056,746.490513 18.7339519,746.672321 18.5043367,746.672321 Z M20.1677714,746.655246 C19.9381562,746.655246 19.7514025,746.472433 19.7514025,746.248438 C19.7514025,746.023438 19.9381562,745.841629 20.1677714,745.841629 C20.3973867,745.841629 20.5831199,746.023438 20.5831199,746.248438 C20.5841404,746.472433 20.3973867,746.655246 20.1677714,746.655246 Z M21.8403908,746.664286 C21.6107756,746.664286 21.4240218,746.482478 21.4240218,746.257478 C21.4240218,746.032478 21.6107756,745.85067 21.8403908,745.85067 C22.070006,745.85067 22.2557392,746.032478 22.2557392,746.257478 C22.2567597,746.481473 22.070006,746.664286 21.8403908,746.664286 Z M23.4956614,746.672321 C23.2660462,746.672321 23.0792925,746.490513 23.0792925,746.265513 C23.0792925,746.040513 23.2660462,745.858705 23.4956614,745.858705 C23.7252766,745.858705 23.9120304,746.040513 23.9120304,746.265513 C23.9120304,746.490513 23.7252766,746.672321 23.4956614,746.672321 Z" id="icon-ask-question"></path>
            </g>
        </g>
    </g>
</svg>