<?xml version="1.0" encoding="UTF-8"?>
<svg width="324px" height="235px" viewBox="0 0 324 235" version="1.1" xmlns="http://www.w3.org/2000/svg" xmlns:xlink="http://www.w3.org/1999/xlink">
    <!-- Generator: Sketch 54.1 (76490) - https://sketchapp.com -->
    <title>superblocks_symbol_00_RBG_white</title>
    <desc>Created with Sketch.</desc>
    <g id="superblocks_symbol_00_RBG_white" stroke="none" stroke-width="1" fill="none" fill-rule="evenodd">
        <path d="M283.465,133.763 L271.316,133.763 C266.844,133.763 263.217,130.136 263.217,125.663 L263.217,97.317 L72.891,97.317 C68.418,97.317 64.792,93.691 64.792,89.218 C64.792,84.745 68.418,81.119 72.891,81.119 L263.217,81.119 L263.217,40.624 L60.742,40.624 L60.742,68.97 C60.742,73.443 57.116,77.069 52.643,77.069 L40.495,77.069 L40.495,101.367 L52.643,101.367 C57.116,101.367 60.742,104.993 60.742,109.465 L60.742,137.812 L251.069,137.812 C255.542,137.812 259.168,141.438 259.168,145.911 C259.168,150.384 255.542,154.01 251.069,154.01 L60.742,154.01 L60.742,194.505 L263.217,194.505 L263.217,166.159 C263.217,161.685 266.844,158.059 271.316,158.059 L283.465,158.059 L283.465,133.763" id="Fill-1" fill="#FFFFFF"></path>
    </g>
</svg>