<?xml version="1.0" encoding="UTF-8"?>
<svg version="1.1" xmlns="http://www.w3.org/2000/svg" xmlns:xlink="http://www.w3.org/1999/xlink" x="0px" y="0px"
	 viewBox="0 0 179.5 42" style="enable-background:new 0 0 179.5 42;" xml:space="preserve" width="179.5px" height="42px">
<path id="XMLID_1_" style="fill:#7158A5;" d="M171.5,0H8C3.582,0,0,3.582,0,8v26c0,4.418,3.582,8,8,8h163.5c4.418,0,8-3.582,8-8V8
	C179.5,3.582,175.918,0,171.5,0z"/>
<g id="XMLID_3_">
	<path id="XMLID_6_" style="fill:#FFFFFF;" d="M35.822,32.33H13.16V9.67h22.662L35.822,32.33z M14.16,31.33h20.662V10.67H14.16
		V31.33z"/>
	
		<rect id="XMLID_5_" x="18.576" y="8.896" transform="matrix(-0.8944 -0.4472 0.4472 -0.8944 26.7449 48.3181)" style="fill:#FFFFFF;" width="1" height="24.212"/>
	
		<rect id="XMLID_4_" x="17.8" y="20.502" transform="matrix(-0.4473 -0.8944 0.8944 -0.4473 24.4994 57.1443)" style="fill:#FFFFFF;" width="24.213" height="1"/>
</g>
<g id="XMLID_9_">
	<path id="XMLID_10_" style="fill:#FFFFFF;" d="M54.744,19.922c0,1.359-0.34,2.435-1.02,3.226s-1.617,1.187-2.813,1.187
		c-1.191,0-2.127-0.396-2.807-1.187s-1.02-1.87-1.02-3.237c0-1.363,0.343-2.437,1.028-3.22s1.622-1.175,2.81-1.175
		c1.195,0,2.131,0.394,2.807,1.181S54.744,18.559,54.744,19.922z M47.736,19.922c0,1.227,0.273,2.175,0.82,2.845
		s1.332,1.005,2.355,1.005c1.031,0,1.819-0.332,2.364-0.996s0.817-1.615,0.817-2.854c0-1.234-0.272-2.181-0.817-2.839
		s-1.329-0.987-2.353-0.987c-1.02,0-1.806,0.332-2.358,0.996S47.736,18.699,47.736,19.922z"/>
	<path id="XMLID_13_" style="fill:#FFFFFF;" d="M59.291,24.334c-0.98,0-1.695-0.367-2.145-1.102h-0.041l0.018,0.492
		c0.016,0.289,0.023,0.605,0.023,0.949V27.1h-0.58v-9.252h0.492l0.111,0.908h0.035c0.438-0.688,1.137-1.031,2.098-1.031
		c0.859,0,1.515,0.282,1.966,0.847s0.677,1.386,0.677,2.464c0,1.047-0.237,1.858-0.712,2.435S60.111,24.334,59.291,24.334z
		 M59.279,23.818c0.652,0,1.157-0.242,1.515-0.727s0.536-1.162,0.536-2.033c0-1.871-0.676-2.807-2.027-2.807
		c-0.742,0-1.287,0.204-1.635,0.612s-0.521,1.073-0.521,1.995v0.188c0,0.996,0.167,1.707,0.501,2.133S58.525,23.818,59.279,23.818z"
		/>
	<path id="XMLID_16_" style="fill:#FFFFFF;" d="M66.281,24.334c-0.926,0-1.647-0.285-2.165-0.855s-0.776-1.369-0.776-2.396
		c0-1.016,0.25-1.829,0.75-2.44s1.174-0.917,2.021-0.917c0.75,0,1.342,0.262,1.775,0.785s0.65,1.234,0.65,2.133v0.469h-4.588
		c0.008,0.875,0.212,1.543,0.612,2.004s0.974,0.691,1.72,0.691c0.363,0,0.683-0.025,0.958-0.076s0.624-0.16,1.046-0.328v0.527
		c-0.359,0.156-0.691,0.263-0.996,0.319S66.648,24.334,66.281,24.334z M66.111,18.24c-0.613,0-1.105,0.202-1.477,0.606
		s-0.588,0.987-0.65,1.749h3.938c0-0.738-0.16-1.315-0.48-1.731S66.677,18.24,66.111,18.24z"/>
	<path id="XMLID_19_" style="fill:#FFFFFF;" d="M74.736,24.217v-4.131c0-0.641-0.135-1.106-0.404-1.397s-0.688-0.437-1.254-0.437
		c-0.762,0-1.319,0.192-1.673,0.577s-0.53,1.009-0.53,1.872v3.516h-0.58v-6.369h0.492l0.111,0.873h0.035
		c0.414-0.664,1.15-0.996,2.209-0.996c1.445,0,2.168,0.775,2.168,2.326v4.166H74.736z"/>
	<path id="XMLID_21_" style="fill:#FFFFFF;" d="M80.408,16.078c0-0.375,0.123-0.563,0.369-0.563c0.121,0,0.216,0.049,0.284,0.146
		s0.103,0.236,0.103,0.416c0,0.176-0.034,0.314-0.103,0.416s-0.163,0.152-0.284,0.152C80.531,16.646,80.408,16.457,80.408,16.078z
		 M81.07,24.217h-0.58v-6.369h0.58V24.217z"/>
	<path id="XMLID_24_" style="fill:#FFFFFF;" d="M87.644,24.217v-4.131c0-0.641-0.135-1.106-0.404-1.397s-0.688-0.437-1.254-0.437
		c-0.762,0-1.319,0.192-1.673,0.577s-0.53,1.009-0.53,1.872v3.516h-0.58v-6.369h0.492l0.111,0.873h0.035
		c0.414-0.664,1.15-0.996,2.209-0.996c1.445,0,2.168,0.775,2.168,2.326v4.166H87.644z"/>
	<path id="XMLID_26_" style="fill:#FFFFFF;" d="M98.343,21.938c0,0.754-0.273,1.342-0.82,1.764s-1.289,0.633-2.227,0.633
		c-1.016,0-1.797-0.131-2.344-0.393V22.98c0.352,0.148,0.734,0.266,1.148,0.352s0.824,0.129,1.23,0.129
		c0.664,0,1.164-0.126,1.5-0.378s0.504-0.603,0.504-1.052c0-0.297-0.06-0.54-0.179-0.729s-0.318-0.364-0.598-0.524
		s-0.704-0.342-1.274-0.545c-0.797-0.285-1.366-0.623-1.708-1.014s-0.513-0.9-0.513-1.529c0-0.66,0.248-1.186,0.744-1.576
		s1.152-0.586,1.969-0.586c0.852,0,1.635,0.156,2.35,0.469l-0.311,0.867c-0.707-0.297-1.395-0.445-2.063-0.445
		c-0.527,0-0.939,0.113-1.236,0.34s-0.445,0.541-0.445,0.943c0,0.297,0.055,0.54,0.164,0.729s0.294,0.363,0.554,0.521
		s0.657,0.333,1.192,0.524c0.898,0.32,1.517,0.664,1.854,1.031S98.343,21.352,98.343,21.938z"/>
	<path id="XMLID_28_" style="fill:#FFFFFF;" d="M100.863,17.795v4.166c0,0.523,0.119,0.914,0.358,1.172
		c0.238,0.258,0.611,0.387,1.119,0.387c0.672,0,1.163-0.184,1.474-0.551s0.466-0.967,0.466-1.799v-3.375h0.973v6.422h-0.803
		l-0.141-0.861h-0.053c-0.199,0.316-0.476,0.559-0.829,0.727s-0.757,0.252-1.21,0.252c-0.781,0-1.367-0.186-1.755-0.557
		s-0.583-0.965-0.583-1.781v-4.201H100.863z"/>
	<path id="XMLID_30_" style="fill:#FFFFFF;" d="M110.303,24.334c-0.418,0-0.8-0.077-1.146-0.231s-0.636-0.392-0.87-0.712h-0.07
		c0.047,0.375,0.07,0.73,0.07,1.066V27.1h-0.973v-9.305h0.791l0.135,0.879h0.047c0.25-0.352,0.541-0.605,0.873-0.762
		s0.713-0.234,1.143-0.234c0.852,0,1.509,0.291,1.972,0.873s0.694,1.398,0.694,2.449c0,1.055-0.235,1.874-0.706,2.458
		S111.139,24.334,110.303,24.334z M110.162,18.504c-0.656,0-1.131,0.182-1.424,0.545s-0.443,0.941-0.451,1.734V21
		c0,0.902,0.15,1.548,0.451,1.937s0.783,0.583,1.447,0.583c0.555,0,0.989-0.225,1.304-0.674s0.472-1.068,0.472-1.857
		c0-0.801-0.157-1.415-0.472-1.843S110.732,18.504,110.162,18.504z"/>
	<path id="XMLID_33_" style="fill:#FFFFFF;" d="M117.381,24.334c-0.949,0-1.698-0.289-2.247-0.867s-0.823-1.381-0.823-2.408
		c0-1.035,0.255-1.857,0.765-2.467s1.194-0.914,2.054-0.914c0.805,0,1.441,0.265,1.91,0.794s0.703,1.228,0.703,2.095v0.615h-4.424
		c0.02,0.754,0.21,1.326,0.571,1.717s0.87,0.586,1.526,0.586c0.691,0,1.375-0.145,2.051-0.434v0.867
		c-0.344,0.148-0.669,0.255-0.976,0.319S117.814,24.334,117.381,24.334z M117.117,18.492c-0.516,0-0.927,0.168-1.233,0.504
		s-0.487,0.801-0.542,1.395h3.357c0-0.613-0.137-1.083-0.41-1.409S117.625,18.492,117.117,18.492z"/>
	<path id="XMLID_36_" style="fill:#FFFFFF;" d="M124.33,17.678c0.285,0,0.541,0.023,0.768,0.07l-0.135,0.902
		c-0.266-0.059-0.5-0.088-0.703-0.088c-0.52,0-0.964,0.211-1.333,0.633s-0.554,0.947-0.554,1.576v3.445H121.4v-6.422h0.803
		l0.111,1.189h0.047c0.238-0.418,0.525-0.74,0.861-0.967S123.928,17.678,124.33,17.678z"/>
	<path id="XMLID_38_" style="fill:#FFFFFF;" d="M129.287,17.689c0.844,0,1.499,0.288,1.966,0.864s0.7,1.392,0.7,2.446
		s-0.235,1.874-0.706,2.458s-1.124,0.876-1.96,0.876c-0.418,0-0.8-0.077-1.146-0.231s-0.636-0.392-0.87-0.712h-0.07l-0.205,0.826
		h-0.697V15.1h0.973v2.215c0,0.496-0.016,0.941-0.047,1.336h0.047C127.725,18.01,128.396,17.689,129.287,17.689z M129.146,18.504
		c-0.664,0-1.143,0.19-1.436,0.571s-0.439,1.022-0.439,1.925s0.15,1.548,0.451,1.937s0.783,0.583,1.447,0.583
		c0.598,0,1.043-0.218,1.336-0.653s0.439-1.062,0.439-1.878c0-0.836-0.146-1.459-0.439-1.869S129.76,18.504,129.146,18.504z"/>
	<path id="XMLID_41_" style="fill:#FFFFFF;" d="M134.625,24.217h-0.973V15.1h0.973V24.217z"/>
	<path id="XMLID_43_" style="fill:#FFFFFF;" d="M142.23,21c0,1.047-0.264,1.864-0.791,2.452s-1.256,0.882-2.186,0.882
		c-0.574,0-1.084-0.135-1.529-0.404s-0.789-0.656-1.031-1.16s-0.363-1.094-0.363-1.77c0-1.047,0.262-1.862,0.785-2.446
		s1.25-0.876,2.18-0.876c0.898,0,1.612,0.299,2.142,0.896S142.23,19.98,142.23,21z M137.338,21c0,0.82,0.164,1.445,0.492,1.875
		s0.811,0.645,1.447,0.645s1.12-0.214,1.45-0.642s0.495-1.054,0.495-1.878c0-0.816-0.165-1.437-0.495-1.86s-0.817-0.636-1.462-0.636
		c-0.637,0-1.117,0.209-1.441,0.627S137.338,20.172,137.338,21z"/>
	<path id="XMLID_46_" style="fill:#FFFFFF;" d="M146.502,24.334c-0.93,0-1.649-0.286-2.159-0.858s-0.765-1.382-0.765-2.429
		c0-1.074,0.259-1.904,0.776-2.49s1.255-0.879,2.212-0.879c0.309,0,0.617,0.033,0.926,0.1s0.551,0.145,0.727,0.234l-0.299,0.826
		c-0.215-0.086-0.449-0.157-0.703-0.214s-0.479-0.085-0.674-0.085c-1.305,0-1.957,0.832-1.957,2.496
		c0,0.789,0.159,1.395,0.478,1.816s0.79,0.633,1.415,0.633c0.535,0,1.084-0.115,1.646-0.346V24
		C147.695,24.223,147.154,24.334,146.502,24.334z"/>
	<path id="XMLID_48_" style="fill:#FFFFFF;" d="M150.609,20.93c0.168-0.238,0.424-0.551,0.768-0.938l2.074-2.197h1.154l-2.602,2.736
		l2.783,3.686h-1.178l-2.268-3.035l-0.732,0.633v2.402h-0.961V15.1h0.961v4.834c0,0.215-0.016,0.547-0.047,0.996H150.609z"/>
	<path id="XMLID_50_" style="fill:#FFFFFF;" d="M160.09,22.465c0,0.598-0.223,1.059-0.668,1.383s-1.07,0.486-1.875,0.486
		c-0.852,0-1.516-0.135-1.992-0.404v-0.902c0.309,0.156,0.64,0.279,0.993,0.369s0.694,0.135,1.022,0.135
		c0.508,0,0.898-0.081,1.172-0.243s0.41-0.409,0.41-0.741c0-0.25-0.108-0.464-0.325-0.642s-0.64-0.388-1.269-0.63
		c-0.598-0.223-1.022-0.417-1.274-0.583s-0.439-0.354-0.563-0.565s-0.185-0.463-0.185-0.756c0-0.523,0.213-0.937,0.639-1.239
		s1.01-0.454,1.752-0.454c0.691,0,1.367,0.141,2.027,0.422l-0.346,0.791c-0.645-0.266-1.229-0.398-1.752-0.398
		c-0.461,0-0.809,0.072-1.043,0.217s-0.352,0.344-0.352,0.598c0,0.172,0.044,0.318,0.132,0.439s0.229,0.236,0.425,0.346
		s0.57,0.268,1.125,0.475c0.762,0.277,1.276,0.557,1.544,0.838S160.09,22.039,160.09,22.465z"/>
</g>
</svg>
