<?xml version="1.0" encoding="UTF-8"?>
<svg width="14px" height="14px" viewBox="0 0 14 14" version="1.1" xmlns="http://www.w3.org/2000/svg" xmlns:xlink="http://www.w3.org/1999/xlink">
    <!-- Generator: Sketch 50.2 (55047) - http://www.bohemiancoding.com/sketch -->
    <title>Shape</title>
    <desc>Created with Sketch.</desc>
    <defs></defs>
    <g id="Symbols" stroke="none" stroke-width="1" fill="none" fill-rule="evenodd">
        <g id="manage-project-item" transform="translate(-411.000000, -4.000000)" fill="#8641F2" fill-rule="nonzero">
            <g id="Group" transform="translate(34.000000, 1.000000)">
                <g id="Group-2-[10h]" transform="translate(353.000000, 3.000000)">
                    <g id="arrow-alt-circle-down" transform="translate(24.000000, 0.000000)">
                        <path d="M7,0 C3.13306452,0 0,3.13306452 0,7 C0,10.8669355 3.13306452,14 7,14 C10.8669355,14 14,10.8669355 14,7 C14,3.13306452 10.8669355,0 7,0 Z M7,12.6451613 C3.88104839,12.6451613 1.35483871,10.1189516 1.35483871,7 C1.35483871,3.88104839 3.88104839,1.35483871 7,1.35483871 C10.1189516,1.35483871 12.6451613,3.88104839 12.6451613,7 C12.6451613,10.1189516 10.1189516,12.6451613 7,12.6451613 Z M6.09677419,3.72580645 L6.09677419,7 L4.20564516,7 C3.90362903,7 3.75403226,7.3641129 3.96572581,7.57862903 L6.76008065,10.3729839 C6.89274194,10.5056452 7.10725806,10.5056452 7.23991935,10.3729839 L10.0342742,7.57862903 C10.2487903,7.3641129 10.096371,7 9.79435484,7 L7.90322581,7 L7.90322581,3.72580645 C7.90322581,3.53951613 7.75080645,3.38709677 7.56451613,3.38709677 L6.43548387,3.38709677 C6.24919355,3.38709677 6.09677419,3.53951613 6.09677419,3.72580645 Z" id="Shape"></path>
                    </g>
                </g>
            </g>
        </g>
    </g>
</svg>