<?xml version="1.0" encoding="UTF-8"?>
<svg width="11px" height="15px" viewBox="0 0 11 15" version="1.1" xmlns="http://www.w3.org/2000/svg" xmlns:xlink="http://www.w3.org/1999/xlink">
    <!-- Generator: Sketch 50.2 (55047) - http://www.bohemiancoding.com/sketch -->
    <title>icon-interact</title>
    <desc>Created with Sketch.</desc>
    <defs></defs>
    <g id="Symbols" stroke="none" stroke-width="1" fill="none" fill-rule="evenodd">
        <g id="Studio-Online" transform="translate(-56.000000, -276.000000)" fill="#FFFFFF" fill-rule="nonzero">
            <g id="Group-13" transform="translate(-31.000000, 0.000000)">
                <g id="Group-10" transform="translate(0.000000, 114.000000)">
                    <g id="Group-9">
                        <g id="Group-2">
                            <path d="M92.1468571,162 C89.5891197,162 87,163.284106 87,165.738652 L87,171.990998 C87,174.753056 89.2469017,177 92.0090024,177 C94.771061,177 97.0179628,174.753056 97.0179628,171.990998 L97.0179628,165.738652 C97.0179628,163.169851 94.4930799,162 92.1468571,162 Z M96.0751912,171.990998 C96.0751912,174.233314 94.2510664,176.057102 92.0090024,176.057102 C89.7668543,176.057102 87.9428978,174.233314 87.9428978,171.990998 L87.9428978,169.066769 C88.7848339,169.321487 90.3695533,169.706824 92.2430652,169.706824 C93.4426159,169.706824 94.7599973,169.54659 96.0751912,169.094029 L96.0751912,171.990998 Z M96.0751912,168.091101 C92.6390032,169.404991 88.9930252,168.415693 87.9428978,168.075789 L87.9428978,165.738652 C87.9428978,163.922689 90.108904,162.942856 92.1468571,162.942856 C94.10219,162.942856 96.0751912,163.807214 96.0751912,165.738652 L96.0751912,168.091101 Z M92.5393456,164.035597 L92.5393456,167.453486 C92.5393456,167.713757 92.3280413,167.924977 92.0679388,167.924977 C91.8077522,167.924977 91.5964899,167.713757 91.5964899,167.453486 L91.5964899,164.035597 C91.5964899,163.775369 91.8077101,163.564149 92.0679388,163.564149 C92.3279992,163.564149 92.5393456,163.775369 92.5393456,164.035597 Z M91.0268137,163.685555 L91.0268137,168.046341 C90.3588262,168.164214 88.3948274,167.614268 88.3948274,167.614268 C87.8841717,163.72493 91.0268137,163.685555 91.0268137,163.685555 Z" id="icon-interact"></path>
                        </g>
                    </g>
                </g>
            </g>
        </g>
    </g>
</svg>
