<?xml version="1.0" encoding="UTF-8"?>
<svg width="222px" height="168px" viewBox="0 0 222 168" version="1.1" xmlns="http://www.w3.org/2000/svg" xmlns:xlink="http://www.w3.org/1999/xlink">
    <!-- Generator: Sketch 50.2 (55047) - http://www.bohemiancoding.com/sketch -->
    <title>img-welcome</title>
    <desc>Created with Sketch.</desc>
    <defs></defs>
    <g id="Symbols" stroke="none" stroke-width="1" fill="none" fill-rule="evenodd">
        <g id="Studio-Online---Base-1" transform="translate(-842.000000, -292.000000)">
            <g id="img-welcome" transform="translate(842.000000, 292.000000)">
                <polyline id="Fill-4" fill="#415358" points="129.26017 107 101.821212 107 101 110 130 110 129.26017 107"></polyline>
                <polyline id="Fill-5" fill="#52676E" points="101.158904 110 99 118 132 118 130.050152 110 101.158904 110"></polyline>
                <path d="M134.756983,120 L97.2430165,120 C96.5590178,120 96,119.549727 96,119 C96,118.449727 96.5590178,118 97.2430165,118 L134.756983,118 C135.44302,118 136,118.449727 136,119 C136,119.549727 135.44302,120 134.756983,120" id="Fill-6" fill="#415358"></path>
                <path d="M98.6807873,121 C94.8609484,131.035534 98.4357614,142.854092 100.69837,145.837846 L102.846227,142.739641 C102.846227,148.936051 110.407605,159.607423 116,165 L116,121 L98.6807873,121" id="Fill-7" fill="#DF5331"></path>
                <path d="M133.31795,121 C137.138483,131.035534 133.567702,142.854092 131.299682,145.837846 L129.153164,142.739641 C129.153164,148.936051 121.593098,159.607423 116,165 L116,121 L133.31795,121" id="Fill-8" fill="#DE4D2A"></path>
                <path d="M105.061051,121 C102.649124,127.386353 104.907284,134.907089 106.336176,136.805554 L107.691878,134.833968 C107.691878,138.777139 112.468058,145.568006 116,149 L116,121 L105.061051,121" id="Fill-9" fill="#F8C538"></path>
                <path d="M126.939682,121 C129.349688,127.386353 127.094083,134.907089 125.664191,136.805554 L124.308143,134.833968 C124.308143,138.777139 119.531766,145.568006 116,149 L116,121 L126.939682,121" id="Fill-10" fill="#F4BA27"></path>
                <path d="M132.732216,16 L116,16 L116,108 L136.199155,108 C139.401493,108 142,105.401364 142,102.195678 L142,46.2601559 C142,35.4744922 138.770523,24.9353153 132.732216,16.0020371 L132.732216,16" id="Fill-11" fill="#CBD3D1"></path>
                <path d="M99.2712232,16 C93.2290509,24.9346363 90,35.4758503 90,46.26423 L90,102.195678 C90,105.401364 92.5959968,108 95.7999426,108 L116,108 L116,16 L99.2712232,16" id="Fill-12" fill="#ECEEEC"></path>
                <path d="M133,16 L125.396805,4.91638371 C123.14273,1.63834164 119.572054,-0.000679387 116,2.11251934e-07 L116,16 L133,16" id="Fill-13" fill="#415358"></path>
                <path d="M116,0 C112.429,0.00135961931 108.858,1.63902107 106.608801,4.91502379 L99,16 L116,16 L116,0" id="Fill-14" fill="#52676E"></path>
                <path d="M132,55 C132,63.8365283 124.836074,71 116.001016,71 C107.163926,71 100,63.8365283 100,55 C100,46.1634717 107.163926,39 116.001016,39 C124.836074,39 132,46.1634717 132,55" id="Fill-15" fill="#415358"></path>
                <path d="M128,54.9096896 C128,51.4658514 126.723264,48.3386642 124.650214,46 C124.656795,46.2587018 124.669957,46.5160238 124.669957,46.7767952 C124.669957,55.1263092 121.339914,62.6548761 116,68 C122.669299,67.7226717 128,61.9698338 128,54.9096896" id="Fill-16" fill="#40B9C5"></path>
                <path d="M125,47.7133168 C125,47.4519269 124.986479,47.1939945 124.979719,46.9346791 C123.195004,44.9707971 120.839044,43.5601213 118.174815,43 C118.200504,43.3588925 118.218081,43.7198596 118.218081,44.0849757 C118.218081,52.0836458 111.880312,58.5672225 104.060689,58.5672225 C103.703746,58.5672225 103.350183,58.5485518 103,58.5222745 C104.201303,64.5024336 109.375626,69 115.577513,69 C115.750576,69 115.922287,68.9937764 116.093999,68.9868614 C121.579295,63.6290593 125,56.0826352 125,47.7133168" id="Fill-17" fill="#5DC0CB"></path>
                <path d="M118,43.2824767 C118,42.9366403 117.982969,42.5947339 117.958079,42.2547924 C117.145197,42.0877691 116.304148,42 115.441485,42 C108.570306,42 103,47.5700624 103,54.4409414 C103,55.3029125 103.087773,56.1445788 103.254803,56.9574254 C103.594105,56.9823152 103.936681,57 104.282533,57 C111.85917,57 118,50.8587835 118,43.2824767" id="Fill-18" fill="#88CDD3"></path>
                <polyline id="Fill-19" fill="#A9B6B8" points="142 72 142 98 147 98 147 74.7826064 142 72"></polyline>
                <path d="M165,90.8268138 C165,87.9341107 163.422285,85.2795014 160.893896,83.9350924 L146,76 L146,99 L160.745564,99 C163.098652,99 165,97.0651456 165,94.678734 L165,90.8268138" id="Fill-20" fill="#CBD3D1"></path>
                <polyline id="Fill-21" fill="#A9B6B8" points="89 72 89 98 84 98 84 74.7826064 89 72"></polyline>
                <path d="M65,90.8268138 C65,87.9341107 66.5810298,85.2795014 69.1046095,83.9350924 L84,76 L84,99 L69.2590043,99 C66.9073489,99 65,97.0651456 65,94.678734 L65,90.8268138" id="Fill-22" fill="#CBD3D1"></path>
                <path d="M134.466117,107 C131.853226,107 117,107 117,107 L117.374537,86 L138,106.604699 C137.49516,106.779177 137.072185,107 134.466117,107" id="Fill-23" fill="#BBC4C5"></path>
                <path d="M115.999642,113 C114.349481,113 113,111.7273 113,110.172528 L113,88.8274724 C113,87.2727 114.349481,86 115.999642,86 C117.649803,86 119,87.2727 119,88.8274724 L119,110.172528 C119,111.7273 117.649803,113 115.999642,113" id="Fill-24" fill="#A9B6B8"></path>
                <path d="M115,111 C114.449574,111 114,110.374975 114,109.610591 L114,98.3894087 C114,97.6250249 114.449574,97 115,97 C115.550426,97 116,97.6250249 116,98.3894087 L116,109.610591 C116,110.374975 115.550426,111 115,111" id="Fill-25" fill="#FFFFFE"></path>
                <path d="M41,63 C41,64.657191 39.6564683,66 38,66 C36.342809,66 35,64.657191 35,63 C35,61.3435317 36.342809,60 38,60 C39.6564683,60 41,61.3435317 41,63" id="Fill-26" fill="#FBEAAD"></path>
                <path d="M59,85.5002936 C59,86.3282443 58.3283757,87 57.5,87 C56.6716243,87 56,86.3282443 56,85.5002936 C56,84.6717557 56.6716243,84 57.5,84 C58.3283757,84 59,84.6717557 59,85.5002936" id="Fill-27" fill="#4883B7"></path>
                <path d="M8.09293564,82.5003532 L7.18516484,82.5003532 C7.18516484,83.2449957 6.88634223,83.910511 6.3989011,84.3994034 C5.9100471,84.8861763 5.24529042,85.1850224 4.50070644,85.1857289 C3.75612245,85.1850224 3.09065934,84.8861763 2.60180534,84.3986969 C2.11436421,83.910511 1.8155416,83.2449957 1.81483516,82.5003532 C1.8155416,81.7557108 2.11436421,81.0901955 2.60180534,80.6013031 C3.09065934,80.1138237 3.75612245,79.8156841 4.50070644,79.8149776 C5.24458399,79.8156841 5.9100471,80.1138237 6.3989011,80.6013031 C6.88634223,81.0901955 7.18516484,81.7557108 7.18516484,82.5003532 L9,82.5003532 C8.99929356,80.0149148 6.98594976,78.0007065 4.50070644,78 C2.01475667,78.0007065 0.000706436421,80.0142083 0,82.5003532 C0.000706436421,84.9864982 2.01546311,87 4.50070644,87 C6.98594976,87 8.99929356,84.9857917 9,82.5003532 L8.09293564,82.5003532" id="Fill-28" fill="#1C2544"></path>
                <path d="M199,61.9996799 C199,63.1051368 198.104,64 197.0032,64 C195.896,64 195,63.1051368 195,61.9996799 C195,60.8955033 195.896,60 197.0032,60 C198.104,60 199,60.8955033 199,61.9996799" id="Fill-29" fill="#1C2544"></path>
                <path d="M222,91.9996645 C222,93.6565261 220.657718,95 219,95 C217.342282,95 216,93.6565261 216,91.9996645 C216,90.3434739 217.342282,89 219,89 C220.657718,89 222,90.3434739 222,91.9996645" id="Fill-30" fill="#FBEAAD"></path>
                <path d="M174,77 C174,77.5521717 173.555,78 173,78 C172.445,78 172,77.5521717 172,77 C172,76.447329 172.445,76 173,76 C173.555,76 174,76.447329 174,77" id="Fill-31" fill="#4883B7"></path>
                <path d="M155,141.5 C155,142.881133 153.878748,144 152.503259,144 C151.121252,144 150,142.881133 150,141.5 C150,140.11952 151.121252,139 152.503259,139 C153.878748,139 155,140.11952 155,141.5" id="Fill-32" fill="#4883B7"></path>
                <path d="M93,165.499644 C93,166.881139 91.880427,168 90.4996441,168 C89.119573,168 88,166.881139 88,165.499644 C88,164.119573 89.119573,163 90.4996441,163 C91.880427,163 93,164.119573 93,165.499644" id="Fill-33" fill="#6EA9CF"></path>
                <path d="M31.6208769,106.620444 L29.3798018,106.620444 L29.3798018,104.379217 C29.3798018,103.620376 28.7587892,103 28.0006787,103 C27.2412108,103 26.6208769,103.620376 26.6208769,104.379217 L26.6208769,106.620444 L24.3798018,106.620444 C23.6210126,106.620444 23,107.241499 23,108.000339 C23,108.758501 23.6210126,109.379556 24.3798018,109.379556 L26.6208769,109.379556 L26.6208769,111.620783 C26.6208769,112.379624 27.2412108,113 28.0006787,113 C28.7587892,113 29.3798018,112.379624 29.3798018,111.620783 L29.3798018,109.379556 L31.6208769,109.379556 C32.3796661,109.379556 33,108.758501 33,108.000339 C33,107.241499 32.3796661,106.620444 31.6208769,106.620444" id="Fill-34" fill="#3869A5"></path>
                <path d="M192.173397,115.172549 L190.826603,115.172549 L190.826603,113.827094 C190.826603,113.372193 190.456057,113 190,113 C189.543943,113 189.173397,113.372193 189.173397,113.827094 L189.173397,115.172549 L187.826603,115.172549 C187.370546,115.172549 187,115.544742 187,115.999643 C187,116.455258 187.370546,116.827451 187.826603,116.827451 L189.173397,116.827451 L189.173397,118.172193 C189.173397,118.627807 189.543943,119 190,119 C190.456057,119 190.826603,118.627807 190.826603,118.172193 L190.826603,116.827451 L192.173397,116.827451 C192.622328,116.827451 193,116.455258 193,115.999643 C193,115.544742 192.622328,115.172549 192.173397,115.172549" id="Fill-35" fill="#BBD9E8"></path>
                <path d="M72,120.5 C72,121.328685 71.3286853,122 70.5,122 C69.6719788,122 69,121.328685 69,120.5 C69,119.671979 69.6719788,119 70.5,119 C71.3286853,119 72,119.671979 72,120.5" id="Fill-36" fill="#FFFFFE"></path>
                <path d="M66,152 C66,152.551932 65.5528231,153 65.0002509,153 C64.4476788,153 64,152.551932 64,152 C64,151.447566 64.4476788,151 65.0002509,151 C65.5528231,151 66,151.447566 66,152" id="Fill-37" fill="#FFFFFE"></path>
                <path d="M219.15697,66.9996707 L218.307355,66.9996707 C218.307355,67.7220942 217.721186,68.3075403 217.003293,68.3088574 C216.278814,68.3075403 215.692645,67.7220942 215.692645,66.9996707 C215.692645,66.2779058 216.278814,65.6931182 217.003293,65.6918011 C217.721186,65.6931182 218.307355,66.2779058 218.307355,66.9996707 L220,66.9996707 C220,65.3427725 218.656422,64.0006585 217.003293,64 C215.343578,64.0006585 214,65.3427725 214,66.9996707 C214,68.6572275 215.343578,69.9993415 217.003293,70 C218.656422,69.9993415 220,68.6572275 220,66.9996707 L219.15697,66.9996707" id="Fill-38" fill="#1C2544"></path>
            </g>
        </g>
    </g>
</svg>