<?xml version="1.0" encoding="UTF-8"?>
<svg width="1020px" height="230px" viewBox="0 0 1020 230" version="1.1" xmlns="http://www.w3.org/2000/svg" xmlns:xlink="http://www.w3.org/1999/xlink">
    <!-- Generator: Sketch 54.1 (76490) - https://sketchapp.com -->
    <title>superblocks_logotype_00_RBG_white</title>
    <desc>Created with Sketch.</desc>
    <g id="superblocks_logotype_00_RBG_white" stroke="none" stroke-width="1" fill="none" fill-rule="evenodd">
        <path d="M322,141.516979 L332.13416,131.633822 C337.071015,137.354858 343.049669,140.867013 350.714567,140.867013 C358.639914,140.867013 362.019081,137.876168 362.019081,133.064081 C362.019081,129.162615 359.680043,126.691408 353.703059,125.912786 L346.948065,125.002165 C332.39461,123.182595 324.339038,116.809922 324.339038,104.457228 C324.339038,91.3225708 334.603423,83 350.065112,83 C363.317989,83 370.076322,86.9014661 376.570866,93.6634505 L366.827381,103.41628 C362.928985,99.2541595 357.210781,96.1346575 350.584342,96.1346575 C343.438674,96.1346575 340.319957,98.9951757 340.319957,103.155626 C340.319957,107.707058 342.789219,109.788953 349.155208,110.828231 L356.042096,111.738851 C370.854332,113.819076 378,120.450733 378,131.762479 C378,144.897136 366.955936,154 350.065112,154 C337.20291,154 328.756663,149.318241 322,141.516979" id="Fill-1" fill="#FFFFFF"></path>
        <path d="M427.066609,141.207464 L426.405387,141.207464 C424.02397,147.926658 418.467329,154 407.092279,154 C392.936358,154 385,144.438389 385,127.641233 L385,85 L401.933391,85 L401.933391,125.961019 C401.933391,135.263625 405.504667,140.304266 413.57361,140.304266 C420.321809,140.304266 427.066609,136.814336 427.066609,129.578792 L427.066609,85 L444,85 L444,152.449289 L427.066609,152.449289 L427.066609,141.207464" id="Fill-2" fill="#FFFFFF"></path>
        <path d="M503,124.974225 L503,113.155723 C503,103.436637 496.910051,97 488.169043,97 C480.091651,97 474,101.335532 474,108.032065 L474,129.834612 C474,136.927739 480.091651,141 488.169043,141 C496.910051,141 503,134.694998 503,124.974225 Z M457,85.5696655 L473.499546,85.5696655 L473.499546,96.8178142 L474.014639,96.8178142 C476.46423,88.9711675 483.682161,84 492.576214,84 C509.590853,84 519,96.8178142 519,119.576283 C519,142.464156 509.590853,155.413056 492.576214,155.413056 C483.682161,155.413056 476.593418,150.181398 474.014639,142.464156 L473.499546,142.464156 L473.499546,180 L457,180 L457,85.5696655 L457,85.5696655 Z" id="Fill-3" fill="#FFFFFF"></path>
        <path d="M541,111.954829 L541,113 L568,113 L568,111.823762 C568,102.407137 563.331132,96 555.004983,96 C546.550766,96 541,102.538203 541,111.954829 Z M524,119.370508 C524,97.9149507 535.496788,84 555.258914,84 C576.312293,84 586,99.6058645 586,118.199233 L586,123.661285 L541.179623,123.661285 L541.179623,125.350528 C541.179623,135.103358 546.734661,141.736686 557.584163,141.736686 C565.721705,141.736686 570.629457,137.83522 574.762127,132.505166 L583.676411,142.516979 C578.121373,150.187913 568.304208,155 555.775083,155 C535.883499,155 524,141.085049 524,119.370508 L524,119.370508 Z" id="Fill-4" fill="#FFFFFF"></path>
        <path d="M594,153 L594,85 L611.122475,85 L611.122475,99.0703508 L611.792866,99.0703508 C613.530726,91.9046154 619.149979,85 630.252686,85 L634,85 L634,100.762609 L628.648904,100.762609 C617.143962,100.762609 611.122475,103.889354 611.122475,111.314535 L611.122475,153 L594,153" id="Fill-5" fill="#FFFFFF"></path>
        <path d="M684,123.974225 L684,112.155723 C684,102.436637 677.908349,96 669.169043,96 C661.091651,96 655,100.335532 655,107.032065 L655,128.834612 C655,135.927739 661.091651,140 669.169043,140 C677.908349,140 684,133.694998 684,123.974225 Z M638,57 L655.031789,57 L655.031789,96.6159524 L655.563498,96.6159524 C658.092109,88.7975873 665.542875,83.8443374 674.723834,83.8443374 C692.287332,83.8443374 702,96.6159524 702,119.292393 C702,142.097772 692.287332,155 674.723834,155 C665.542875,155 658.225463,149.787198 655.563498,142.097772 L655.031789,142.097772 L655.031789,153.435992 L638,153.435992 L638,57 L638,57 Z" id="Fill-6" fill="#FFFFFF"></path>
        <path d="M727.242173,153 C716.201539,153 711,146.970134 711,136.483556 L711,56 L727.242173,56 L727.242173,139.628182 L736,139.628182 L736,153 L727.242173,153" id="Fill-7" fill="#FFFFFF"></path>
        <path d="M783,125.852651 L783,113.014701 C783,102.691962 777.387872,97 768.432167,97 C759.612128,97 754,102.691962 754,113.014701 L754,125.852651 C754,136.308038 759.612128,142 768.432167,142 C777.387872,142 783,136.308038 783,125.852651 Z M738,119.370508 C738,97.654296 750.080911,84 769.434071,84 C788.919089,84 801,97.654296 801,119.370508 C801,141.217048 788.919089,155 769.434071,155 C750.080911,155 738,141.217048 738,119.370508 L738,119.370508 Z" id="Fill-8" fill="#FFFFFF"></path>
        <path d="M804,118.370508 C804,96.654296 815.43259,83 835.668832,83 C849.46696,83 858.534013,89.5013296 862.606588,100.16478 L848.808459,106.278469 C847.233123,100.555762 842.897147,96.3936413 835.668832,96.3936413 C826.33838,96.3936413 821.608992,102.896642 821.608992,112.388817 L821.608992,124.74151 C821.608992,134.233686 826.33838,140.606359 835.668832,140.606359 C843.683971,140.606359 847.626535,136.054927 850.122085,129.942908 L863,136.054927 C858.534013,148.018309 848.94016,154 835.668832,154 C815.43259,154 804,140.217048 804,118.370508" id="Fill-9" fill="#FFFFFF"></path>
        <polyline id="Fill-10" fill="#FFFFFF" points="870 56 886.42986 56 886.42986 114.46107 887.071484 114.46107 895.928862 102.140267 910.948469 84.5744921 929.56051 84.5744921 906.455452 111.05369 932 153 912.487377 153 895.288888 122.326845 886.42986 132.156538 886.42986 153 870 153 870 56"></polyline>
        <path d="M929,141.516979 L939.315127,131.633822 C944.340141,137.354858 950.423857,140.867013 958.227327,140.867013 C966.294198,140.867013 969.733707,137.876168 969.733707,133.064081 C969.733707,129.162615 967.352901,126.691408 961.267486,125.912786 L954.391867,125.002165 C939.578528,123.182595 931.379107,116.809922 931.379107,104.457228 C931.379107,91.3225708 941.828484,83 957.564576,83 C971.055811,83 977.933129,86.9014661 984.543647,93.6634505 L974.62617,103.41628 C970.65816,99.2541595 964.839544,96.1346575 958.094777,96.1346575 C950.821507,96.1346575 947.6454,98.9951757 947.6454,103.155626 C947.6454,107.707058 950.160456,109.788953 956.638423,110.828231 L963.648292,111.738851 C978.726731,113.819076 986,120.450733 986,131.762479 C986,144.897136 974.75872,154 957.564576,154 C944.472691,154 935.875619,149.318241 929,141.516979" id="Fill-11" fill="#FFFFFF"></path>
        <path d="M283,134.211027 L270.8495,134.211027 C266.375948,134.211027 262.7495,130.581222 262.7495,126.104763 L262.7495,97.7368421 L72.4,97.7368421 C67.9264477,97.7368421 64.3,94.108038 64.3,89.6315789 C64.3,85.1551199 67.9264477,81.5263158 72.4,81.5263158 L262.7495,81.5263158 L262.7495,41 L60.2494999,41 L60.2494999,69.3679207 C60.2494999,73.8443797 56.6230522,77.4731838 52.1494999,77.4731838 L40,77.4731838 L40,101.789974 L52.1494999,101.789974 C56.6230522,101.789974 60.2494999,105.418778 60.2494999,109.894236 L60.2494999,138.263158 L250.6,138.263158 C255.073552,138.263158 258.7,141.891962 258.7,146.368421 C258.7,150.84488 255.073552,154.473684 250.6,154.473684 L60.2494999,154.473684 L60.2494999,195 L262.7495,195 L262.7495,166.632079 C262.7495,162.154619 266.375948,158.525815 270.8495,158.525815 L283,158.525815 L283,134.211027" id="Fill-12" fill="#FFFFFF"></path>
    </g>
</svg>