<?xml version="1.0" encoding="UTF-8"?>
<svg width="20px" height="20px" viewBox="0 0 20 20" version="1.1" xmlns="http://www.w3.org/2000/svg" xmlns:xlink="http://www.w3.org/1999/xlink">
    <!-- Generator: Sketch 55 (78076) - https://sketchapp.com -->
    <title>rocket-ship-svgrepo-com</title>
    <desc>Created with Sketch.</desc>
    <g id="Symbols" stroke="none" stroke-width="1" fill="none" fill-rule="evenodd">
        <g id="New---Side-Menu" transform="translate(-23.000000, -174.000000)" fill="#FFFFFF" fill-rule="nonzero">
            <g id="Group-18">
                <g id="Group-6">
                    <g id="Group-2">
                        <g id="menu-deployments" transform="translate(0.000000, 167.000000)">
                            <g id="rocket-ship-svgrepo-com" transform="translate(33.000000, 17.000000) rotate(90.000000) translate(-33.000000, -17.000000) translate(23.000000, 7.000000)">
                                <path d="M14.7651468,16.3110712 C14.350406,15.8963096 13.7257964,15.8963096 13.3110556,16.3110712 C12.8963148,16.7258329 12.8963148,17.350474 13.3110556,17.7652356 L15.2348532,19.6891301 C15.9044347,20.268797 16.4840725,19.8990095 16.6889444,19.6891301 C17.1036852,19.2743684 17.1036852,18.6497274 16.6889444,18.2349657 L14.7651468,16.3110712 Z" id="Path"></path>
                                <path d="M16.7651468,13.3105671 C16.350406,12.8964776 15.7257964,12.8964776 15.3110556,13.3105671 C14.8963148,13.7246566 14.8963148,14.3482853 15.3110556,14.7623748 L17.2348532,16.6831512 C17.8694566,17.2768458 18.4840725,16.8926905 18.6889444,16.6831512 C19.1036852,16.2690618 19.1036852,15.645433 18.6889444,15.2313436 L16.7651468,13.3105671 Z" id="Path"></path>
                                <path d="M19.892258,9.78422585 C17.3466051,5.27589905 12.6522902,5.99935675 12.2266505,6.08519071 L9.07527955,2.93794535 C5.47780545,-0.585334529 1.15592531,0.00324122798 0.775305187,0.0890751925 C0.390592371,0.129948509 0.0959187253,0.428323719 0.0508991405,0.812532893 C-0.247867195,3.87394429 0.775305187,6.84952173 2.94443064,9.01989483 L6.09580157,12.1671402 C5.67016186,14.5500545 6.4354948,16.9738422 8.13805365,18.6741722 C8.60462025,19.140128 9.16122603,19.5243372 9.75466601,19.8635857 C10.7573749,20.3990261 11.3385369,19.2259619 10.8596922,18.6292115 C9.62369994,16.4179651 10.0493397,13.6099683 11.837845,11.8238043 C12.9428711,10.7202248 14.3916832,10.1234744 15.9264418,10.1234744 C16.9496142,10.1234744 17.927767,10.4218496 18.7790464,10.8878054 C19.2046861,11.2270539 20.3547319,10.7937968 19.892258,9.78422585 Z M10.6959846,10.6343908 C9.12029913,12.2080135 8.39589309,14.333426 8.52276646,16.4179651 C7.75743352,15.1427176 7.49959408,13.6099683 7.84338,12.0813062 C7.92932648,11.8278917 7.84338,11.5295165 7.63056014,11.3169752 L4.13949598,7.83048133 C2.47786403,6.17102468 1.58565771,3.95977826 1.67160419,1.66678521 C4.0126226,1.62591189 6.22676764,2.47607687 7.84338,4.09057287 L11.3344442,7.57706676 C11.5063371,7.78960801 11.8010108,7.87544197 12.0997771,7.78960801 C12.5254168,7.66290073 14.4121467,7.24190557 16.4421207,8.46810506 C14.2770879,8.31278646 12.0997771,9.23243608 10.6959846,10.6343908 Z" id="Shape"></path>
                                <circle id="Oval" cx="8" cy="8" r="1"></circle>
                                <circle id="Oval" cx="5" cy="5" r="1"></circle>
                            </g>
                        </g>
                    </g>
                </g>
            </g>
        </g>
    </g>
</svg>